Hanif_Deep_2_5_grf.mot
version=1
nRows=53
nColumns=19
inDegrees=yes
endheader
time	right_ground_force_vx	right_ground_force_vy	right_ground_force_vz	right_ground_force_px	right_ground_force_py	right_ground_force_pz	right_ground_torque_x	right_ground_torque_y	right_ground_torque_z	left_ground_force_vx	left_ground_force_vy	left_ground_force_vz	left_ground_force_px	left_ground_force_py	left_ground_force_pz	left_ground_torque_x	left_ground_torque_y	left_ground_torque_z
2.150000	-2.818710	268.941000	57.961800	0.224137	0.000000	-1.433970	-19.371300	-1.752360	6.459070	2.884560	265.986000	-56.897500	0.208518	0.000000	-0.960337	15.225600	-1.993640	2.760490
2.155000	-2.653880	270.365000	58.455400	0.224097	0.000000	-1.433050	-19.721600	-1.827990	6.466160	2.192360	262.507000	-56.481600	0.208470	0.000000	-0.960547	15.086700	-2.010970	2.731870
2.160000	-2.140450	270.844000	57.802000	0.223923	0.000000	-1.434250	-19.431600	-1.777950	6.427860	2.365580	264.456000	-56.725800	0.208548	0.000000	-0.960886	15.286900	-2.041350	2.772960
2.165000	-2.484060	268.499000	57.850200	0.223328	0.000000	-1.433760	-19.393400	-1.837260	6.197040	2.585730	262.750000	-56.210700	0.208265	0.000000	-0.960141	14.990600	-2.038010	2.675440
2.170000	-2.397930	271.568000	57.400800	0.223704	0.000000	-1.434320	-19.463300	-1.814150	6.377640	2.680400	261.419000	-55.916400	0.207479	0.000000	-0.959759	14.813400	-2.130770	2.467790
2.175000	-1.758290	270.210000	57.965100	0.224281	0.000000	-1.434340	-19.362600	-1.741920	6.516130	2.668440	261.464000	-55.522100	0.207496	0.000000	-0.960807	15.090000	-2.126630	2.467110
2.180000	-1.700470	269.768000	57.722400	0.223698	0.000000	-1.433870	-19.455400	-1.751440	6.337140	2.661280	261.309000	-55.131600	0.207466	0.000000	-0.960689	15.050100	-2.154550	2.460040
2.185000	-1.541100	269.443000	57.006500	0.223275	0.000000	-1.433640	-19.493700	-1.769650	6.201200	2.126660	259.755000	-55.037700	0.207121	0.000000	-0.960577	14.935800	-2.197090	2.372370
2.190000	-1.740820	269.947000	56.864400	0.223145	0.000000	-1.434520	-19.292700	-1.723180	6.188430	3.159210	256.856000	-54.691600	0.206957	0.000000	-0.960838	14.826400	-2.221740	2.302010
2.195000	-1.529360	269.797000	57.016700	0.224357	0.000000	-1.433670	-19.513400	-1.719820	6.524730	3.878390	258.788000	-54.263500	0.207001	0.000000	-0.960805	14.924000	-2.189910	2.303660
2.200000	-1.716940	269.606000	56.238000	0.223967	0.000000	-1.433430	-19.565300	-1.654810	6.423670	4.059100	257.020000	-54.025100	0.207450	0.000000	-0.961512	15.001700	-2.186560	2.409130
2.205000	-1.557830	269.936000	56.252000	0.224547	0.000000	-1.433770	-19.496900	-1.793120	6.563640	3.770470	255.271000	-53.743100	0.205830	0.000000	-0.961364	14.864100	-2.251330	1.981800
2.210000	-2.514710	269.187000	55.382800	0.223759	0.000000	-1.431780	-19.974700	-1.849130	6.324290	3.530690	254.188000	-53.119800	0.205251	0.000000	-0.960883	14.679800	-2.323710	1.835910
2.215000	-3.376600	270.659000	54.563700	0.223818	0.000000	-1.433150	-19.713600	-1.859250	6.383440	3.772270	253.262000	-52.425000	0.206329	0.000000	-0.961571	14.798000	-2.301710	2.102300
2.220000	-3.817220	267.659000	53.781100	0.225330	0.000000	-1.432590	-19.644900	-1.879740	6.732060	3.531960	254.102000	-52.083000	0.205701	0.000000	-0.961202	14.756400	-2.276560	1.934010
2.225000	-4.519260	267.058000	53.301900	0.224960	0.000000	-1.432560	-19.609200	-1.879570	6.622400	2.522240	250.615000	-51.087500	0.205804	0.000000	-0.961556	14.651100	-2.217470	1.936930
2.230000	-4.438590	264.451000	52.784300	0.224727	0.000000	-1.432860	-19.337500	-1.924580	6.480360	2.265970	249.440000	-49.923200	0.206142	0.000000	-0.960675	14.364600	-2.223680	2.012300
2.235000	-4.501310	262.641000	51.945600	0.224958	0.000000	-1.431620	-19.528600	-1.960050	6.490070	1.272430	246.523000	-49.094000	0.205297	0.000000	-0.961290	14.357300	-2.233800	1.787580
2.240000	-4.697800	260.274000	51.161600	0.225206	0.000000	-1.431780	-19.311900	-2.011620	6.486980	1.166630	243.975000	-47.322400	0.205576	0.000000	-0.961373	14.229900	-2.222050	1.829270
2.245000	-5.305720	256.566000	50.110800	0.225266	0.000000	-1.432060	-18.962600	-2.027000	6.410450	0.757620	240.677000	-46.533200	0.205381	0.000000	-0.961865	14.159900	-2.190700	1.758470
2.250000	-5.620150	251.355000	48.775600	0.225416	0.000000	-1.431310	-18.767500	-1.962330	6.329620	-0.018073	237.007000	-45.051300	0.204420	0.000000	-0.961963	13.974900	-2.135580	1.491590
2.255000	-6.465660	247.658000	46.720400	0.225402	0.000000	-1.432260	-18.254200	-2.012010	6.225190	-1.201490	233.620000	-43.144400	0.204943	0.000000	-0.962132	13.826900	-2.155690	1.605430
2.260000	-7.162570	241.155000	44.782600	0.225242	0.000000	-1.431040	-18.066500	-2.045030	6.017180	-2.208110	228.894000	-41.335400	0.205280	0.000000	-0.961886	13.501400	-1.999440	1.632610
2.265000	-8.257960	233.634000	43.016000	0.225683	0.000000	-1.430370	-17.654300	-2.181110	5.917360	-2.823000	223.423000	-39.436200	0.203890	0.000000	-0.962098	13.233400	-2.019950	1.282100
2.270000	-8.880660	226.935000	40.638600	0.226423	0.000000	-1.429630	-17.315600	-2.173180	5.920800	-3.107510	218.271000	-38.506800	0.204321	0.000000	-0.962256	12.967100	-1.973500	1.353230
2.275000	-9.571870	218.874000	38.077400	0.225370	0.000000	-1.429560	-16.708700	-2.209790	5.463820	-1.939630	213.039000	-37.252500	0.204485	0.000000	-0.961819	12.551700	-2.014560	1.356870
2.280000	-10.237200	211.789000	35.810900	0.225355	0.000000	-1.431290	-15.796200	-2.210500	5.279060	-1.092860	208.808000	-36.275600	0.203024	0.000000	-0.963095	12.560000	-2.039150	1.016110
2.285000	-10.286500	201.911000	34.501200	0.224778	0.000000	-1.427830	-15.750900	-2.281200	4.896690	0.458215	205.579000	-36.082300	0.203475	0.000000	-0.963010	12.331900	-2.104190	1.100880
2.290000	-10.141600	195.499000	32.954500	0.224218	0.000000	-1.429840	-14.854200	-2.236050	4.622300	2.259910	204.773000	-36.334500	0.203610	0.000000	-0.963305	12.326200	-2.050670	1.102130
2.295000	-9.459390	186.849000	32.030100	0.223992	0.000000	-1.429370	-14.284200	-2.182640	4.364720	4.015030	204.275000	-36.940500	0.204317	0.000000	-0.964204	12.462900	-2.098390	1.245690
2.300000	-8.462800	179.982000	31.287500	0.223350	0.000000	-1.429150	-13.792100	-2.224460	4.055990	4.150320	204.591000	-36.579900	0.205679	0.000000	-0.964442	12.530500	-2.015810	1.513880
2.305000	-7.331200	173.177000	30.309900	0.223597	0.000000	-1.428430	-13.399500	-2.098370	3.943980	3.399730	202.301000	-35.544600	0.207248	0.000000	-0.966502	12.814400	-1.875740	1.803180
2.310000	-6.708520	168.925000	29.030900	0.223203	0.000000	-1.429500	-12.889500	-2.019230	3.776560	1.726850	200.419000	-34.276100	0.207156	0.000000	-0.966773	12.764900	-1.777340	1.761210
2.315000	-5.770410	163.768000	27.325900	0.222909	0.000000	-1.430300	-12.360900	-2.104330	3.577980	0.396014	198.011000	-32.539900	0.209077	0.000000	-0.965858	12.442800	-1.600000	2.104640
2.320000	-5.621450	155.832000	25.949400	0.222911	0.000000	-1.427970	-12.123800	-2.013930	3.406950	-1.363330	192.454000	-31.017300	0.209340	0.000000	-0.966826	12.296300	-1.431660	2.089010
2.325000	-5.056890	151.222000	24.385000	0.222302	0.000000	-1.429080	-11.596400	-2.009260	3.199010	-2.199030	187.484000	-30.175700	0.209222	0.000000	-0.967514	12.116800	-1.402730	2.022280
2.330000	-4.741870	146.175000	22.947600	0.222866	0.000000	-1.427740	-11.404800	-1.958110	3.175710	-2.170800	181.684000	-29.468800	0.209277	0.000000	-0.968011	11.833900	-1.466410	1.990620
2.335000	-4.967850	138.565000	21.156300	0.222741	0.000000	-1.425500	-11.114700	-2.002050	2.980000	-0.305888	180.243000	-29.230600	0.207747	0.000000	-0.966863	11.513800	-1.477570	1.675890
2.340000	-5.362100	135.062000	20.458500	0.222354	0.000000	-1.424140	-11.013300	-1.981380	2.854790	2.326830	177.464000	-31.035400	0.208530	0.000000	-0.967772	11.472000	-1.613480	1.815820
2.345000	-4.935130	136.917000	20.769100	0.223334	0.000000	-1.423620	-11.242200	-1.933130	3.036730	4.651200	176.358000	-31.764500	0.208307	0.000000	-0.969894	11.752200	-1.757590	1.773060
2.350000	-4.172570	142.492000	22.581800	0.224585	0.000000	-1.424560	-11.572100	-2.020200	3.324820	6.402970	177.630000	-32.426700	0.210696	0.000000	-0.969096	11.682100	-1.703480	2.197050
2.355000	-3.348790	145.714000	23.671400	0.224583	0.000000	-1.422440	-12.145900	-2.135770	3.375090	6.690590	177.566000	-32.760700	0.210790	0.000000	-0.968844	11.633300	-1.634330	2.201330
2.360000	-2.812030	147.953000	24.545500	0.225530	0.000000	-1.422990	-12.256600	-2.158110	3.561970	6.164460	175.027000	-32.115300	0.210224	0.000000	-0.969729	11.622600	-1.693860	2.085050
2.365000	-3.183540	148.769000	24.498300	0.226484	0.000000	-1.422020	-12.466300	-2.220330	3.725210	5.464670	172.339000	-31.515200	0.210018	0.000000	-0.967806	11.115700	-1.707540	2.031730
2.370000	-3.484360	151.598000	24.143200	0.226389	0.000000	-1.421980	-12.707000	-2.219110	3.795250	4.732310	164.250000	-30.546600	0.207308	0.000000	-0.968702	10.742600	-1.783660	1.515730
2.375000	-4.072430	154.680000	24.417800	0.227806	0.000000	-1.423570	-12.716700	-2.305420	4.097320	4.390740	158.570000	-29.565400	0.207490	0.000000	-0.968996	10.417000	-1.798480	1.510350
2.380000	-4.632730	159.221000	25.401600	0.230236	0.000000	-1.422450	-13.265900	-2.407120	4.614500	5.625860	155.711000	-29.153500	0.206906	0.000000	-0.969777	10.333600	-1.954550	1.408590
2.385000	-5.670980	163.036000	25.898500	0.230188	0.000000	-1.420820	-13.845500	-2.487240	4.727510	7.257820	159.161000	-29.591300	0.207092	0.000000	-0.969464	10.490800	-2.195690	1.486370
2.390000	-6.127590	162.294000	25.546600	0.230528	0.000000	-1.419930	-13.920600	-2.569770	4.755790	8.190090	161.345000	-30.252300	0.208033	0.000000	-0.971054	10.880400	-2.279950	1.664680
2.395000	-6.526440	163.371000	25.595900	0.233198	0.000000	-1.421340	-13.781600	-2.644890	5.228960	8.772980	163.317000	-30.618300	0.208197	0.000000	-0.970820	10.964200	-2.426780	1.729240
2.400000	-6.145130	164.908000	26.639400	0.232113	0.000000	-1.419560	-14.210700	-2.559250	5.106230	9.804800	165.981000	-31.330200	0.210971	0.000000	-0.971698	11.274300	-2.501340	2.230940
2.405000	-5.879450	166.468000	27.286300	0.234586	0.000000	-1.419270	-14.400600	-2.520520	5.582550	9.813740	169.360000	-31.426400	0.213321	0.000000	-0.972467	11.639700	-2.425810	2.657420
2.410000	-5.466160	164.307000	27.983500	0.233514	0.000000	-1.418800	-14.287400	-2.601290	5.304540	8.172990	172.980000	-30.985100	0.214139	0.000000	-0.971614	11.757400	-2.479020	2.867900
